<svg width="676" height="467" viewBox="0 0 676 467" fill="none" xmlns="http://www.w3.org/2000/svg">
<circle cx="243.082" cy="160.238" r="50.0632" transform="rotate(-16.2657 243.082 160.238)" fill="#EC9EB1"/>
<circle cx="467.359" cy="94.8004" r="50.0632" transform="rotate(-16.2657 467.359 94.8004)" fill="#EC9EB1"/>
<circle cx="579.497" cy="62.0817" r="50.0632" transform="rotate(-16.2657 579.497 62.0817)" fill="#EC9EB1"/>
<circle cx="388.874" cy="242.862" r="50.0632" transform="rotate(-16.2657 388.874 242.862)" fill="#EC9EB1"/>
<circle cx="355.22" cy="127.519" r="50.0632" transform="rotate(-16.2657 355.22 127.519)" fill="#E8EA8B"/>
<circle cx="501.012" cy="210.143" r="50.0632" transform="rotate(-16.2657 501.012 210.143)" fill="#E8EA8B"/>
<circle cx="613.151" cy="177.424" r="50.0632" transform="rotate(-16.2657 613.151 177.424)" fill="#E8EA8B"/>
<circle cx="276.735" cy="275.58" r="50.0632" transform="rotate(-16.2657 276.735 275.58)" fill="#E8EA8B"/>
<circle cx="11.3587" cy="223.8" r="50.0632" transform="rotate(-16.2657 11.3587 223.8)" fill="#EC9EB1"/>
<circle cx="123.497" cy="191.082" r="50.0632" transform="rotate(-16.2657 123.497 191.082)" fill="#EC9EB1"/>
<circle cx="45.0124" cy="339.143" r="50.0632" transform="rotate(-16.2657 45.0124 339.143)" fill="#E8EA8B"/>
<circle cx="157.151" cy="306.424" r="50.0632" transform="rotate(-16.2657 157.151 306.424)" fill="#E8EA8B"/>
</svg>
